# File created by Blade
# Date/Time:  Thu Sep 25 19:32:06 2014
# Frame Rate: 120.000 fps
#------------------------------------------------------
:FULLY-SPECIFIED
:DEGREES
3028
root -2.644730 33.153807 -1.078492 -5.310429 -35.931460 16.093888
Spine -0.388590 28.399578 -4.632779
Head -2.927228 58.577017 -4.906676
LeftShoulder -20.578403 20.466727 16.514311
LeftArm 15.509087 -18.809833 -44.401457
LeftForeArm 13.860094 -0.000000 14.935014
LeftHand -30.001015 -0.000000 2.334747
LeftHandThumb1 -26.253704 0.000000 33.147579
RightShoulder -12.859859 18.280183 -23.099790
RightArm -5.645602 -19.617245 85.107021
RightForeArm 12.977581 -0.000000 53.939985
RightHand 0.511189 -0.000000 17.077226
RightHandThumb1 -24.326973 -0.000000 -32.862282
LeftUpLeg -103.365576 -28.490618 -14.413967
LeftLeg 112.966185 -0.000000 -0.000000
LeftFoot 19.459336 4.308054 -15.828373
LeftToeBase 11.912086 -0.000000 -0.000000
RightUpLeg -13.223133 14.218546 -11.900130
RightLeg 27.321238 -0.000000 -0.000000
RightFoot -16.400249 -0.814234 -6.379807
RightToeBase -7.968128 -0.000000 0.000000
3029
root -2.650308 33.156037 -1.077367 -5.157661 -36.060259 16.003127
Spine -0.502341 28.495024 -4.591596
Head -3.090397 58.843162 -5.196095
LeftShoulder -20.600279 20.475358 16.527634
LeftArm 15.483274 -18.786337 -44.530713
LeftForeArm 13.844698 -0.000000 15.011094
LeftHand -30.149369 -0.000000 2.471157
LeftHandThumb1 -26.253704 0.000000 33.147579
RightShoulder -12.889953 18.233962 -23.085113
RightArm -5.673056 -19.618875 85.093484
RightForeArm 12.986664 0.000000 53.893200
RightHand 0.516055 -0.000000 17.032775
RightHandThumb1 -24.326973 -0.000000 -32.862282
LeftUpLeg -103.316052 -28.474438 -14.442200
LeftLeg 112.935811 -0.000000 -0.000000
LeftFoot 19.362822 4.459248 -15.678691
LeftToeBase 11.900929 -0.000000 -0.000000
RightUpLeg -13.358404 14.202562 -11.841312
RightLeg 27.314155 -0.000000 -0.000000
RightFoot -16.330439 -0.687518 -6.414779
RightToeBase -8.008369 -0.000000 0.000000
3030
root -2.638741 33.163523 -1.056117 -5.064818 -36.019872 16.064007
Spine -0.687729 28.409756 -4.676887
Head -3.109128 59.102170 -5.367233
LeftShoulder -20.686570 20.621617 16.461625
LeftArm 15.573469 -18.809589 -44.664611
LeftForeArm 13.845587 -0.000000 15.001759
LeftHand -30.083952 -0.000000 2.697445
LeftHandThumb1 -26.253704 0.000000 33.147579
RightShoulder -12.891842 18.136910 -23.072439
RightArm -5.693747 -19.628560 85.079938
RightForeArm 12.958944 -0.000000 53.828611
RightHand 0.549588 -0.000000 17.053796
RightHandThumb1 -24.326973 -0.000000 -32.862282
LeftUpLeg -103.226241 -28.706948 -14.597409
LeftLeg 112.824316 -0.000000 -0.000000
LeftFoot 19.318121 4.692667 -15.690690
LeftToeBase 11.749803 -0.000000 -0.000000
RightUpLeg -13.438131 13.948870 -11.955746
RightLeg 27.261542 -0.000000 -0.000000
RightFoot -16.309525 -0.530301 -6.489998
RightToeBase -8.130992 -0.000000 0.000000
3031
root -2.639005 33.168350 -1.046468 -4.960499 -36.090831 16.050205
Spine -0.808103 28.473408 -4.707405
Head -3.299142 59.275026 -5.641796
LeftShoulder -20.749693 20.721928 16.396449
LeftArm 15.695818 -18.838480 -44.748236
LeftForeArm 13.763149 -0.000000 14.941013
LeftHand -30.059776 -0.000000 2.880733
LeftHandThumb1 -26.253704 0.000000 33.147579
RightShoulder -12.933290 18.080073 -23.049628
RightArm -5.717642 -19.644936 85.060813
RightForeArm 13.015403 -0.000000 53.761882
RightHand 0.524203 -0.000000 17.029213
RightHandThumb1 -24.326973 -0.000000 -32.862282
LeftUpLeg -103.135692 -28.765620 -14.703913
LeftLeg 112.782322 -0.000000 -0.000000
LeftFoot 19.224701 4.811555 -15.688228
LeftToeBase 11.922411 -0.000000 -0.000000
RightUpLeg -13.521069 13.949873 -11.964425
RightLeg 27.209018 -0.000000 -0.000000
RightFoot -16.214024 -0.540994 -6.595663
RightToeBase -8.370364 -0.000000 0.000000
3032
root -2.642546 33.172275 -1.038769 -4.859317 -36.148034 16.024077
Spine -0.915110 28.509859 -4.742508
Head -3.493668 59.447023 -5.872235
LeftShoulder -20.736961 20.741837 16.400144
LeftArm 15.655457 -18.900679 -44.823956
LeftForeArm 13.793916 -0.000000 14.935349
LeftHand -30.194927 0.000000 2.921186
LeftHandThumb1 -26.253704 0.000000 33.147579
RightShoulder -12.951280 18.083473 -23.029551
RightArm -5.773773 -19.655666 85.057789
RightForeArm 13.103351 -0.000000 53.660057
RightHand 0.490221 -0.000000 17.091586
RightHandThumb1 -24.326973 -0.000000 -32.862282
LeftUpLeg -103.049713 -28.820170 -14.797392
LeftLeg 112.759359 -0.000000 -0.000000
LeftFoot 19.143891 4.882676 -15.783222
LeftToeBase 11.829311 -0.000000 -0.000000
RightUpLeg -13.577398 14.003407 -11.947201
RightLeg 27.139294 -0.000000 -0.000000
RightFoot -16.123375 -0.632042 -6.697965
RightToeBase -8.533337 -0.000000 0.000000
3033
root -2.645947 33.176074 -1.030864 -4.761819 -36.213724 16.017263
Spine -1.036307 28.546316 -4.810187
Head -3.653874 59.635232 -6.058904
LeftShoulder -20.733208 20.689806 16.423368
LeftArm 15.541623 -18.862307 -44.837651
LeftForeArm 13.827764 -0.000000 14.957223
LeftHand -30.342490 -0.000000 2.871891
LeftHandThumb1 -26.253704 0.000000 33.147579
RightShoulder -12.950839 18.091842 -22.985794
RightArm -5.828108 -19.648673 85.043968
RightForeArm 13.092374 -0.000000 53.581479
RightHand 0.470285 -0.000000 17.143010
RightHandThumb1 -24.326973 -0.000000 -32.862282
LeftUpLeg -102.970329 -28.867336 -14.898928
LeftLeg 112.732925 -0.000000 -0.000000
LeftFoot 19.063197 4.904358 -15.963146
LeftToeBase 11.845162 -0.000000 -0.000000
RightUpLeg -13.635035 14.113421 -11.946965
RightLeg 27.056945 -0.000000 -0.000000
RightFoot -16.039084 -0.778823 -6.811312
RightToeBase -8.732131 -0.000000 0.000000
3034
root -2.648961 33.178631 -1.022924 -4.681127 -36.273339 16.038902
Spine -1.158694 28.582805 -4.916367
Head -3.821498 59.812327 -6.220297
LeftShoulder -20.748624 20.675531 16.445474
LeftArm 15.475737 -18.888351 -44.883437
LeftForeArm 13.818210 -0.000000 14.981995
LeftHand -30.341667 -0.000000 2.936130
LeftHandThumb1 -26.253704 0.000000 33.147579
RightShoulder -12.935836 18.104244 -22.957847
RightArm -5.887960 -19.628209 85.064100
RightForeArm 13.035124 0.000000 53.490734
RightHand 0.441268 -0.000000 17.084124
RightHandThumb1 -24.326973 -0.000000 -32.862282
LeftUpLeg -102.893018 -28.921558 -15.022780
LeftLeg 112.721877 -0.000000 -0.000000
LeftFoot 18.993332 4.941838 -16.169692
LeftToeBase 11.834977 -0.000000 -0.000000
RightUpLeg -13.695815 14.333936 -11.976179
RightLeg 26.992142 -0.000000 -0.000000
RightFoot -15.997696 -1.023042 -6.860449
RightToeBase -8.779967 -0.000000 0.000000
